<?xml version="1.0" encoding="UTF-8" standalone="no"?>
<!-- Created with Inkscape (http://www.inkscape.org/) -->

<svg
   width="76.832687mm"
   height="114.95604mm"
   viewBox="0 0 76.832687 114.95604"
   version="1.1"
   id="svg12203"
   xml:space="preserve"
   inkscape:version="1.2.1 (9c6d41e410, 2022-07-14)"
   sodipodi:docname="logo.svg"
   xmlns:inkscape="http://www.inkscape.org/namespaces/inkscape"
   xmlns:sodipodi="http://sodipodi.sourceforge.net/DTD/sodipodi-0.dtd"
   xmlns="http://www.w3.org/2000/svg"
   xmlns:svg="http://www.w3.org/2000/svg"><sodipodi:namedview
     id="namedview12205"
     pagecolor="#505050"
     bordercolor="#eeeeee"
     borderopacity="1"
     inkscape:showpageshadow="0"
     inkscape:pageopacity="0"
     inkscape:pagecheckerboard="0"
     inkscape:deskcolor="#505050"
     inkscape:document-units="mm"
     showgrid="false"
     inkscape:zoom="0.73851712"
     inkscape:cx="140.1457"
     inkscape:cy="301.95644"
     inkscape:window-width="1920"
     inkscape:window-height="1009"
     inkscape:window-x="1272"
     inkscape:window-y="-8"
     inkscape:window-maximized="1"
     inkscape:current-layer="layer1" /><defs
     id="defs12200" /><g
     inkscape:label="Taso 1"
     inkscape:groupmode="layer"
     id="layer1"
     transform="translate(-56.501497,-68.671065)"><path
       style="fill:#3a1a3f;stroke-width:0.999998"
       d="m 72.587683,183.54367 c -5.489568,-0.47086 -9.993475,-2.46098 -11.872265,-5.24593 -0.706258,-1.0469 -1.126241,-1.96977 -1.854821,-4.0758 -1.92693,-5.56998 -2.692935,-11.6526 -2.225962,-17.67571 0.323718,-4.17537 1.532057,-7.29273 4.118674,-10.62567 2.678386,-3.45118 6.289388,-6.6879 10.758914,-9.64373 3.03881,-2.00966 5.30889,-3.27841 10.6428,-5.94825 2.00236,-1.00226 3.66993,-1.85004 3.70571,-1.88394 0.0358,-0.0339 0.15915,-10.64172 0.27418,-23.57294 0.14811,-16.651315 0.23731,-23.628365 0.30571,-23.912545 0.37563,-1.56063 1.60647,-2.80586 3.24396,-3.28189 0.36544,-0.10623 0.71813,-0.13511 1.36009,-0.11134 0.82182,0.0304 0.90502,0.0511 1.60583,0.39832 1.26215,0.62542 2.10314,1.6817 2.41385,3.03176 0.0787,0.3421 0.0599,5.0695 -0.086,21.572325 -0.10277,11.62382 -0.16014,21.16094 -0.12748,21.1936 0.074,0.074 0.60428,-0.21778 3.00985,-1.65619 3.760567,-2.24864 7.110467,-4.58383 10.059477,-7.0124 l 0.21601,-0.17788 0.0623,-5.70645 c 0.0343,-3.13855 0.086,-6.58275 0.11497,-7.65378 0.20257,-7.487735 0.27011,-9.510255 0.51173,-15.324665 0.18027,-4.3379 0.31881,-5.90825 0.68106,-7.71937 0.34912,-1.74547 1.24506,-3.90303 2.14857,-5.17407 1.26901,-1.78522 3.26026,-3.29323 5.31991,-4.02887 2.0726,-0.74026 5.06112,-0.84633 7.36679,-0.26145 1.66856,0.42327 3.57286,1.548 4.93163,2.91277 1.98335,1.99209 3.23969,4.70465 3.71968,8.03113 0.46747,3.23975 0.45579,5.96398 -0.0413,9.64046 -0.59702,4.41522 -1.59943,7.79429 -3.65033,12.305065 -2.58703,5.68993 -6.19571,10.80786 -11.06497,15.69261 l -1.26757,1.27161 0.0541,6.48272 c 0.0787,9.4334 0.33012,17.92922 0.8208,27.73897 0.18924,3.78315 0.17957,3.94433 -0.2946,4.9113 -0.82614,1.68476 -2.30341,2.54836 -4.23856,2.47785 -0.79278,-0.0289 -0.89775,-0.0545 -1.59302,-0.38807 -1.21366,-0.58236 -1.98084,-1.49058 -2.37783,-2.81499 -0.3165,-1.0559 -0.89971,-15.64153 -1.11644,-27.92131 -0.0315,-1.78254 -0.0832,-3.25708 -0.11509,-3.27676 -0.0318,-0.0197 -0.71341,0.40167 -1.5146,0.93633 -2.98135,1.98958 -6.22048,3.90661 -9.621657,5.69444 -0.9779,0.51404 -1.87713,0.98915 -1.99829,1.05582 l -0.22029,0.1212 -0.0541,1.85264 c -0.0297,1.01895 -0.0758,6.06269 -0.10231,11.2083 -0.0923,17.89572 -0.18309,19.80862 -1.09967,23.16022 -1.03422,3.78174 -3.21617,6.99465 -6.3543,9.35668 -4.08519,3.07486 -9.22711,4.50486 -14.55507,4.04788 z m 4.41183,-8.96859 c 1.80865,-0.3645 3.5366,-1.12382 4.83246,-2.12357 1.33291,-1.02833 2.50225,-2.64664 2.99039,-4.13856 0.56796,-1.73587 0.74027,-3.11955 0.80633,-6.47506 0.11252,-5.71597 0.2152,-23.26899 0.13657,-23.34762 -0.12691,-0.12691 -4.22536,2.02152 -7.03924,3.69 -3.68062,2.18241 -6.30294,4.16121 -8.71892,6.5793 -2.496906,2.49908 -3.71455,4.32937 -4.230797,6.35948 -0.337865,1.32864 -0.446271,2.46353 -0.451734,4.72918 -0.0075,3.09985 0.296889,5.62619 1.039469,8.628 0.341634,1.38103 1.151345,3.93437 1.400372,4.41593 0.26353,0.50961 1.04699,0.89109 2.83361,1.37971 2.05503,0.56203 4.53444,0.67948 6.40149,0.30321 z m 40.914467,-70.31576 c 1.45017,-2.15809 3.15889,-5.289325 3.97916,-7.291805 0.95314,-2.32686 1.82997,-5.40127 2.24559,-7.87368 0.50049,-2.97728 0.48671,-6.61126 -0.0327,-8.62577 -0.5752,-2.23083 -1.49502,-3.08556 -3.20881,-2.98174 -1.95533,0.11846 -2.73826,1.37425 -3.04987,4.89191 -0.10654,1.20271 -0.43389,9.57339 -0.59433,15.19766 -0.19567,6.859415 -0.2042,7.686725 -0.0788,7.646865 0.0646,-0.0205 0.39753,-0.45409 0.73979,-0.96344 z"
       id="path15246" /></g></svg>
