<?xml version="1.0" encoding="UTF-8" standalone="no"?>
<!-- Created with Inkscape (http://www.inkscape.org/) -->

<svg
   width="194.20416mm"
   height="105.83334mm"
   viewBox="0 0 194.20416 105.83334"
   version="1.1"
   id="svg5"
   xml:space="preserve"
   sodipodi:docname="logo_text.svg"
   inkscape:version="1.2.1 (9c6d41e410, 2022-07-14)"
   xmlns:inkscape="http://www.inkscape.org/namespaces/inkscape"
   xmlns:sodipodi="http://sodipodi.sourceforge.net/DTD/sodipodi-0.dtd"
   xmlns="http://www.w3.org/2000/svg"
   xmlns:svg="http://www.w3.org/2000/svg"><sodipodi:namedview
     id="namedview7"
     pagecolor="#505050"
     bordercolor="#eeeeee"
     borderopacity="1"
     inkscape:showpageshadow="0"
     inkscape:pageopacity="0"
     inkscape:pagecheckerboard="0"
     inkscape:deskcolor="#505050"
     inkscape:document-units="mm"
     showgrid="false"
     inkscape:zoom="0.73851712"
     inkscape:cx="307.3727"
     inkscape:cy="232.89914"
     inkscape:window-width="1920"
     inkscape:window-height="1009"
     inkscape:window-x="1272"
     inkscape:window-y="-8"
     inkscape:window-maximized="1"
     inkscape:current-layer="layer1" /><defs
     id="defs2" /><g
     inkscape:label="Taso 1"
     inkscape:groupmode="layer"
     id="layer1"
     transform="translate(-7.510705,-87.164146)"><path
       style="fill:#3f1e43;stroke-width:1"
       d="m 22.227991,192.96621 c -7.029815,-1.29729 -9.473384,-3.85241 -11.382313,-11.90193 -4.0156504,-16.93307 1.345952,-26.03996 21.304188,-36.18598 2.255572,-1.14665 4.215505,-2.1992 4.355406,-2.33899 0.155456,-0.15534 0.328607,-8.68123 0.445291,-21.92585 0.20936,-23.763863 0.112935,-22.491073 1.812171,-23.920883 2.128089,-1.79067 5.570442,-0.72245 6.269159,1.94543 0.143142,0.54655 0.169294,8.691873 0.06413,19.972943 -0.09768,10.4775 -0.08039,19.15668 0.03843,19.28708 0.36922,0.40519 8.925176,-5.00715 11.116492,-7.0321 l 0.950031,-0.8779 0.175953,-10.71562 C 57.812,92.776327 58.893516,89.270757 67.09154,87.783917 c 17.661109,-3.2031 17.751419,24.949313 0.14156,44.129063 -1.641382,1.78771 -2.009637,2.3461 -2.006632,3.04271 0.01712,3.96841 0.579102,23.69466 0.801122,28.12004 0.303527,6.05001 0.238889,6.55436 -1.00747,7.8608 -2.175409,2.28027 -6.367711,0.90163 -6.793709,-2.23411 -0.241464,-1.77739 -0.640403,-11.19088 -0.842219,-19.87326 -0.212439,-9.13937 0.03901,-8.61205 -3.128248,-6.56028 -1.365025,0.88427 -3.950515,2.40765 -5.74553,3.38529 -4.054861,2.20845 -3.648466,1.27847 -3.675525,8.41095 -0.08156,21.49926 -0.448853,26.23183 -2.324148,29.94677 -3.432442,6.79963 -11.841585,10.51205 -20.282743,8.95432 z m 8.373293,-8.57364 c 2.757179,-1.06932 4.586258,-3.17362 5.432905,-6.25037 0.640575,-2.32787 0.844302,-26.06146 0.223708,-26.06146 -2.164096,0 -12.729214,7.2913 -15.624223,10.78274 -3.293252,3.97172 -3.751385,10.43636 -1.310056,18.48594 1.101801,3.63288 6.205895,5.01016 11.277666,3.04315 z m 36.309319,-65.18631 c 5.982584,-9.36359 7.274428,-23.481763 2.148636,-23.481763 -2.507318,0 -2.891586,1.47914 -3.299335,12.699993 -0.475816,13.09402 -0.454464,13.29408 1.150699,10.78177 z m 9.307388,40.22394 c -0.55173,-0.7877 -0.519494,-1.45241 0.08616,-1.77655 0.86732,-0.46417 0.954252,-1.06719 1.089462,-7.55728 l 0.132292,-6.35 h 1.322916 1.322917 l 0.071,6.48192 c 0.07934,7.24336 0.03962,7.46224 -1.610331,8.87454 -1.243073,1.06402 -1.841603,1.14518 -2.414415,0.32737 z m 7.530838,-3.45597 c -1.156589,-0.5852 -1.333471,-1.33493 -1.261896,-5.3487 l 0.06606,-3.70416 h 1.322916 1.322917 l 0.06525,2.91041 c 0.0802,3.57753 0.189545,4.10105 0.856528,4.10105 0.8549,0 1.187487,-1.02771 1.327184,-4.10105 l 0.132292,-2.91041 h 1.322917 1.322916 l 0.16137,3.43958 c 0.08875,1.89177 0.297963,3.777 0.464912,4.18939 0.516141,1.27496 -1.096912,2.21915 -2.091695,1.22437 -0.641599,-0.6416 -0.696251,-0.64132 -1.97417,0.0102 -1.190673,0.60704 -2.099921,0.66371 -3.037493,0.18932 z m 10.944399,-0.0243 c -1.08995,-0.49466 -1.42461,-1.53286 -1.42461,-4.41939 0,-2.20798 -0.0296,-2.32757 -0.59532,-2.40792 -0.810477,-0.1151 -1.062931,-2.06892 -0.267324,-2.06892 0.612104,0 1.127224,-0.49302 1.127224,-1.07885 0,-0.61891 0.5821,-1.03674 1.69618,-1.21753 0.91646,-0.14872 0.94965,-0.12581 0.94965,0.65536 0,0.97419 0.59901,1.64102 1.47411,1.64102 0.52737,0 0.64256,0.13281 0.64256,0.74083 0,0.89009 -0.42905,1.37584 -1.21523,1.37584 -1.70331,0 -1.175,4.63166 0.5489,4.81218 0.85633,0.0897 1.55317,1.28598 1.04505,1.7941 -0.46172,0.46172 -3.09325,0.57625 -3.98119,0.17327 z m 7.642632,0.17816 c -1.25483,-0.24239 -1.65891,-1.24029 -1.65891,-4.09675 v -2.62392 l -0.793752,-0.2767 c -1.12737,-0.393 -1.14892,-1.71615 -0.0343,-2.10472 0.520982,-0.18161 0.834972,-0.52799 0.999882,-1.10302 0.46502,-1.62143 2.73856,-1.70156 2.73856,-0.0965 0,0.92207 0.33046,1.22724 1.32894,1.22724 1.16931,0 0.78946,1.90839 -0.42182,2.11926 l -0.77483,0.13489 v 2.24636 2.24637 l 0.99114,0.082 c 1.01486,0.084 1.52246,0.83102 1.1768,1.73181 -0.21814,0.56845 -1.9622,0.82067 -3.55173,0.51364 z m 6.30931,-0.26706 c -5.28785,-2.60491 -0.55007,-10.42557 5.32708,-8.79341 l 0.99219,0.27555 0.0115,2.43496 c 0.006,1.33922 0.13206,2.97074 0.27939,3.62558 0.4611,2.04947 0.43758,2.17245 -0.48881,2.55584 -0.78208,0.32367 -0.90884,0.30618 -1.40952,-0.19451 -0.30259,-0.30259 -0.68979,-0.47675 -0.86044,-0.38703 -0.17065,0.0897 -0.60793,0.33529 -0.97173,0.54572 -0.86563,0.50069 -1.77627,0.48087 -2.87968,-0.0627 z m 3.07347,-2.72191 c 0.5877,-1.14563 0.33017,-4.08293 -0.36667,-4.18225 -1.12456,-0.16026 -1.93117,2.79285 -1.24865,4.57147 0.24048,0.62668 1.21458,0.39197 1.61532,-0.38922 z m 24.49375,2.7869 c -5.46993,-2.37884 -0.63284,-10.49952 5.27653,-8.85841 l 0.99218,0.27555 v 2.57573 c 0,1.41666 0.16839,3.22489 0.3742,4.01828 0.4323,1.66657 0.42081,1.70334 -0.6485,2.07611 -0.68394,0.23842 -0.88524,0.19963 -1.34386,-0.25899 -0.29668,-0.29668 -0.67904,-0.46601 -0.84969,-0.3763 -0.17065,0.0897 -0.60793,0.3353 -0.97173,0.54573 -0.82449,0.4769 -1.73614,0.47764 -2.82913,0.002 z m 2.96697,-2.79764 c 1.10603,-2.13882 -0.0645,-5.41766 -1.30292,-3.64961 -0.42457,0.60616 -0.59135,3.17684 -0.26182,4.03558 0.26536,0.69152 1.11607,0.48168 1.56474,-0.38597 z m 27.38404,2.84589 c -1.11127,-0.56227 -1.32002,-1.36904 -1.32423,-5.11786 -0.004,-3.92022 0.0988,-4.1553 1.76357,-4.01822 l 1.01065,0.0832 0.1323,3.36881 c 0.12239,3.1168 0.17682,3.39996 0.7276,3.78531 1.71315,1.1986 -0.34689,2.89197 -2.30989,1.89874 z m 15.8861,-0.14362 c -3.8877,-2.08499 -1.85007,-9.04153 2.64835,-9.04153 4.2134,0 4.33585,4.78522 0.14942,5.83938 -2.33775,0.58865 -1.42656,1.88921 0.94077,1.34277 1.51642,-0.35003 1.79607,-0.21662 1.87807,0.896 0.0974,1.32127 -3.72637,1.97713 -5.61661,0.96338 z m 2.32112,-5.23062 c 0.74739,-0.5235 0.69094,-1.56196 -0.0849,-1.56196 -0.56259,0 -1.34284,1.26523 -1.06124,1.72087 0.22419,0.36273 0.44513,0.3321 1.14615,-0.15891 z m -62.53842,5.12644 c -0.0741,-0.193 -0.1025,-2.96747 -0.0632,-6.16549 l 0.0715,-5.81457 h 1.45521 1.45521 l 0.0778,2.24053 c 0.0893,2.57378 0.14873,2.64616 2.17117,2.64616 2.02245,0 2.08184,-0.0724 2.17118,-2.64616 l 0.0778,-2.24053 1.29732,-0.0823 c 1.75913,-0.1116 1.73669,-0.18995 1.74134,6.07993 0.005,6.58398 0.0815,6.30549 -1.73447,6.30549 h -1.41732 l -0.0757,-2.57968 -0.0757,-2.57969 h -1.98438 -1.98437 l -0.13229,2.51354 -0.13229,2.51354 -1.39202,0.0801 c -0.97202,0.0559 -1.43266,-0.0258 -1.52668,-0.27085 z m 22.84668,-3.18267 c -0.068,-2.18163 -0.23928,-3.74223 -0.45335,-4.1319 -0.64153,-1.16777 1.42637,-2.1481 2.20033,-1.04311 l 0.40754,0.58184 1.03331,-0.58076 c 1.52213,-0.85548 3.04931,-0.78238 4.02433,0.19264 l 0.7734,0.7734 v 3.87064 3.87064 l -1.38907,-0.08 -1.38906,-0.08 -0.13229,-3.30729 c -0.21517,-5.37938 -2.10492,-4.72858 -2.11277,0.7276 l -0.004,2.71198 h -1.42456 -1.42456 z m 10.36681,0.65119 c 0,-1.77717 -0.14956,-3.37913 -0.39009,-4.17835 -0.43644,-1.45018 -0.28603,-1.77025 0.96964,-2.06347 0.54919,-0.12824 0.80496,-0.0333 1.11937,0.41562 l 0.40754,0.58184 1.03331,-0.58076 c 1.40619,-0.79032 2.96324,-0.76763 3.92308,0.0572 l 0.74235,0.63792 0.0852,3.99229 0.0852,3.99229 h -1.46637 -1.46636 l -0.074,-3.37343 c -0.0701,-3.19124 -0.10388,-3.3777 -0.62637,-3.45236 -0.99856,-0.14267 -1.29093,0.62437 -1.43206,3.75701 l -0.13229,2.93649 -1.38906,0.08 -1.38906,0.08 z m 15.59889,0.28868 c -0.0107,-2.4029 -0.154,-3.62047 -0.63685,-5.41009 -0.28906,-1.07134 1.54769,-1.67087 2.29428,-0.74888 l 0.49236,0.60805 1.01741,-0.57182 c 1.39005,-0.78125 2.95184,-0.75483 3.90717,0.0661 l 0.74236,0.63792 0.0852,3.99229 0.0852,3.99229 h -1.47427 -1.47427 v -3.02106 c 0,-3.34805 -0.1044,-3.8581 -0.78966,-3.8581 -0.9207,0 -1.1903,0.77396 -1.32701,3.80945 l -0.13229,2.93742 -1.38906,0.08 -1.38907,0.08 -0.0115,-2.59352 z m 19.23791,2.38947 c -0.097,-0.097 -0.18161,-1.49599 -0.188,-3.10885 -0.007,-1.8594 -0.15113,-3.31974 -0.39289,-3.9908 -0.2097,-0.58208 -0.38307,-1.09417 -0.38526,-1.13798 -0.0282,-0.56268 1.97866,-0.81597 2.51001,-0.3168 l 0.59918,0.5629 1.01918,-0.54625 c 1.50244,-0.80525 2.87456,-0.72378 3.82549,0.22715 l 0.7734,0.7734 v 3.87064 3.87064 l -1.38906,-0.08 -1.38906,-0.08 -0.13229,-3.30729 c -0.21901,-5.47502 -2.11667,-4.6524 -2.11667,0.91754 v 2.52204 h -1.27882 c -0.70335,0 -1.3582,-0.0794 -1.45521,-0.17639 z m -24.60934,-10.62621 c -0.53091,-0.58665 -0.56637,-1.62054 -0.0785,-2.2878 0.48017,-0.65666 1.97599,-0.65666 2.45616,0 1.17992,1.61365 -1.04789,3.75723 -2.3777,2.2878 z m -29.69867,-0.70677 c -0.56298,-0.85922 0.0509,-1.98438 1.08267,-1.98438 1.03176,0 1.64564,1.12516 1.08266,1.98438 -0.2674,0.4081 -0.68209,0.66146 -1.08266,0.66146 -0.40058,0 -0.81526,-0.25336 -1.08267,-0.66146 z m 3.96875,0 c -0.56298,-0.85922 0.0509,-1.98438 1.08267,-1.98438 1.03176,0 1.64564,1.12516 1.08266,1.98438 -0.2674,0.4081 -0.68209,0.66146 -1.08266,0.66146 -0.40058,0 -0.81527,-0.25336 -1.08267,-0.66146 z"
       id="path9195" /></g></svg>
